<svg width="88" height="61" viewBox="0 0 88 61" fill="none" xmlns="http://www.w3.org/2000/svg">
<path fill-rule="evenodd" clip-rule="evenodd" d="M11.8064 26.6008C20.0907 26.6008 26.8064 19.8851 26.8064 11.6008C26.8064 7.68156 25.3033 4.11336 22.8421 1.44127C25.3613 0.754679 28.0126 0.388184 30.7495 0.388184C33.4062 0.388184 35.9823 0.733521 38.4352 1.38175C35.9414 4.06026 34.4158 7.65239 34.4158 11.6008C34.4158 19.8851 41.1315 26.6008 49.4158 26.6008C53.3992 26.6008 57.0199 25.0481 59.7057 22.5149C60.3863 25.024 60.7495 27.6637 60.7495 30.3882C60.7495 33.1495 60.3764 35.8236 59.678 38.363C56.995 35.8453 53.3854 34.3032 49.4158 34.3032C41.1315 34.3032 34.4158 41.019 34.4158 49.3032C34.4158 53.2014 35.9027 56.7522 38.3404 59.4195C35.9159 60.0517 33.372 60.3882 30.7495 60.3882C28.0464 60.3882 25.4269 60.0307 22.9355 59.3604C25.3413 56.6999 26.8064 53.1726 26.8064 49.3032C26.8064 41.019 20.0907 34.3032 11.8064 34.3032C7.94498 34.3032 4.42435 35.7623 1.76576 38.1592C1.10291 35.6807 0.749512 33.0757 0.749512 30.3882C0.749512 27.7379 1.09319 25.1678 1.73842 22.7201C4.40019 25.1317 7.93173 26.6008 11.8064 26.6008Z" fill="#141414"/>
<circle cx="72.6816" cy="30.3882" r="15" fill="url(#paint0_linear_107_3)"/>
<circle cx="30.7495" cy="30.3882" r="5" fill="#FFD02A"/>
<defs>
<linearGradient id="paint0_linear_107_3" x1="83.2578" y1="19.39" x2="65.8098" y2="43.4126" gradientUnits="userSpaceOnUse">
<stop stop-color="#0029FF"/>
<stop offset="1" stop-color="#00B2FF"/>
</linearGradient>
</defs>
</svg>
